<svg version="1.1" id="Layer_1" xmlns="http://www.w3.org/2000/svg" xmlns:xlink="http://www.w3.org/1999/xlink" x="0px" y="0px" width="60px" height="60px" viewBox="0 0 60 60" enable-background="new 0 0 60 60" xml:space="preserve">
<g>
	<g>
		<defs>
			<path id="SVGID_1_" d="M12.678,23.795L2.109,20.233c1.767-5.237,4.952-9.891,9.209-13.455c4.31-3.607,9.519-5.929,15.068-6.714     l1.563,11.038c-3.483,0.493-6.756,1.953-9.468,4.222C15.796,17.572,13.789,20.501,12.678,23.795 M30.638,59.936     c16.599,0,30.103-13.496,30.103-30.085H49.586c0,10.442-8.5,18.936-18.948,18.936c-10.448,0-18.948-8.494-18.948-18.936     c0-0.247,0.006-0.497,0.014-0.745L0.558,28.681c-0.015,0.388-0.022,0.782-0.022,1.17C0.536,46.44,14.039,59.936,30.638,59.936      M50.388,7.145c-4.393-3.819-9.752-6.267-15.497-7.081l-1.564,11.038c3.607,0.511,6.976,2.051,9.74,4.454L50.388,7.145z"/>
		</defs>
		<clipPath id="SVGID_00000098925925785842557610000012827932941169327803_">
			<use xlink:href="#SVGID_1_" overflow="visible"/>
		</clipPath>
		
			<linearGradient id="SVGID_00000183248060668445766640000002815117666073924224_" gradientUnits="userSpaceOnUse" x1="0.3649" y1="-0.2739" x2="60.9129" y2="60.2741">
			<stop offset="0" style="stop-color:#00FFBE"/>
			<stop offset="0" style="stop-color:#00BEFF"/>
			<stop offset="1" style="stop-color:#00F0BE"/>
		</linearGradient>
		
			<rect x="0.027" y="0.064" clip-path="url(#SVGID_00000098925925785842557610000012827932941169327803_)" fill="url(#SVGID_00000183248060668445766640000002815117666073924224_)" width="61.224" height="59.872"/>
	</g>
</g>
</svg>